# Blender v2.79 (sub 0) OBJ File: ''
# www.blender.org
mtllib ship.mtl
o Cube
v 0.489411 -0.044705 -1.000000
v 1.000000 -0.044705 1.000000
v -1.000000 -0.044705 1.000000
v -0.489410 -0.044705 -1.000000
v 0.489411 0.489411 -1.000000
v 0.999999 1.000000 1.000001
v -1.000000 1.000000 1.000000
v -0.489411 0.489411 -1.000000
v 0.999999 -0.044706 3.300000
v -1.000001 -0.044706 3.300000
v 0.999999 0.999999 3.300001
v -1.000001 0.999999 3.300000
v 1.222836 -0.161104 1.587495
v 1.222836 1.116399 1.587496
v -1.222836 -0.161104 1.587495
v -1.222837 1.116399 1.587495
v 1.222836 -0.161105 2.712505
v 1.222835 1.116399 2.712505
v -1.222837 -0.161105 2.712505
v -1.222837 1.116399 2.712505
v -1.000000 1.200000 1.000000
v -1.000001 1.199999 3.300000
v 0.999999 1.199999 3.300001
v 0.999999 1.200000 1.000001
v -1.222837 1.316399 1.587495
v -1.222837 1.316399 2.712505
v 1.222835 1.316399 2.712505
v 1.222836 1.316399 1.587496
v 1.222835 1.116400 0.187496
v 0.999999 1.050001 -0.399999
v -1.222837 1.116400 0.187495
v -1.000001 1.050001 -0.400000
v 1.222835 1.316400 0.187496
v 0.999999 1.150001 -0.399999
v -1.222837 1.316400 0.187495
v -1.000001 1.150001 -0.400000
vn 0.0000 -1.0000 0.0000
vn 0.0000 0.9689 -0.2474
vn 0.9689 0.0000 -0.2474
vn -0.9689 -0.0000 -0.2474
vn 0.0000 0.0000 -1.0000
vn -0.0000 -0.0000 1.0000
vn -0.0000 1.0000 0.0000
vn -1.0000 -0.0000 -0.0000
vn -0.9350 -0.0000 0.3546
vn 1.0000 0.0000 0.0000
vn 0.4630 -0.8864 -0.0000
vn -0.9350 -0.0000 -0.3546
vn 0.9350 0.0000 -0.3546
vn 0.9350 0.0000 0.3546
vn -0.4630 -0.8864 -0.0000
vn -0.4630 0.8864 0.0000
vn 0.4630 0.8864 0.0000
vn 0.5065 0.8621 -0.0154
vn -0.4158 -0.9093 -0.0162
vn 0.4158 -0.9093 -0.0162
vn -0.5065 0.8621 -0.0154
usemtl Material
s off
f 1//1 2//1 3//1 4//1
f 5//2 8//2 7//2 6//2
f 1//3 5//3 6//3 2//3
f 3//1 2//1 9//1 10//1
f 3//4 7//4 8//4 4//4
f 5//5 1//5 4//5 8//5
f 9//6 11//6 12//6 10//6
f 6//7 7//7 12//7 11//7
f 6//8 11//8 23//8 24//8
f 10//9 12//9 20//9 19//9
f 16//8 15//8 19//8 20//8
f 13//10 14//10 18//10 17//10
f 3//11 10//11 19//11 15//11
f 7//12 3//12 15//12 16//12
f 2//13 6//13 14//13 13//13
f 11//14 9//14 17//14 18//14
f 11//14 18//14 27//14 23//14
f 9//15 2//15 13//15 17//15
f 24//16 23//16 27//16 28//16
f 22//17 21//17 25//17 26//17
f 20//9 12//9 22//9 26//9
f 16//8 20//8 26//8 25//8
f 21//10 7//10 32//10 36//10
f 25//18 21//18 36//18 35//18
f 12//10 7//10 21//10 22//10
f 18//10 14//10 28//10 27//10
f 32//12 31//12 35//12 36//12
f 29//13 30//13 34//13 33//13
f 6//8 24//8 34//8 30//8
f 7//19 16//19 31//19 32//19
f 14//20 6//20 30//20 29//20
f 24//21 28//21 33//21 34//21
f 28//10 14//10 29//10 33//10
f 16//8 25//8 35//8 31//8
